<svg width="524" height="662" viewBox="0 0 524 662" fill="none" xmlns="http://www.w3.org/2000/svg">
<path d="M327.175 0.309174H196.961C196.961 0.309174 -59.4612 478.535 13.8218 602.54L156.045 553.831C182.033 525.732 218.471 507.87 259.048 506.839C261.695 443.429 253.756 385.72 251.177 353.431C250.363 343.332 255.995 338.729 261.966 338.729C267.937 338.729 273.637 343.332 272.755 353.431C269.905 385.72 262.034 443.429 264.748 506.839C306.479 507.389 343.935 525.663 370.33 554.655L510.111 602.677C583.597 478.535 327.175 0.309174 327.175 0.309174ZM314.621 322.035L312.586 334.126C303.29 330.073 290.194 327.187 275.266 326.088L272.416 331.515H251.652L248.802 326.157C234.146 327.256 221.253 330.141 212.093 334.195L209.515 322.516C208.565 318.325 209.311 313.928 211.415 310.218L229.667 278.822C229.26 276.417 228.853 274.15 228.514 272.02C224.918 248.937 220.304 214.312 232.992 174.672C244.188 139.772 262.645 123.215 262.645 123.215H262.984C262.984 123.215 314.554 175.152 293.383 279.097L312.314 310.355C314.418 313.859 315.232 318.05 314.554 322.103L314.621 322.035Z" fill="#035C67"/>
<path d="M166.904 608.104H174.3V635.859C174.3 639.157 173.961 642.386 173.214 645.409C172.468 648.5 171.246 651.248 169.482 653.653C167.718 656.057 165.411 657.981 162.629 659.424C159.847 660.866 156.386 661.553 152.315 661.553C148.244 661.553 144.851 660.798 142.001 659.424C139.219 657.981 136.912 656.057 135.148 653.653C134.741 653.103 134.401 652.554 134.062 651.935C133.723 652.485 133.383 653.103 132.976 653.653C131.212 656.057 128.905 657.981 126.123 659.424C123.341 660.866 119.88 661.553 115.809 661.553C111.738 661.553 108.345 660.798 105.495 659.424C102.713 657.981 100.406 656.057 98.6419 653.653C96.9455 651.248 95.6563 648.5 94.9099 645.409C94.1635 642.386 93.8242 639.157 93.8242 635.859V608.104H101.22V634.348C101.22 636.409 101.424 638.676 101.763 641.081C102.102 643.416 102.849 645.546 103.867 647.538C104.885 649.462 106.377 651.111 108.209 652.348C110.041 653.584 112.62 654.202 115.741 654.202C118.863 654.202 121.441 653.584 123.273 652.348C125.173 651.111 126.598 649.462 127.616 647.538C128.634 645.546 129.38 643.348 129.719 641.081C130.059 638.882 130.262 636.752 130.262 634.76V608.036H137.658V634.76C137.658 636.752 137.862 638.813 138.201 641.081C138.54 643.416 139.287 645.546 140.305 647.538C141.322 649.462 142.815 651.111 144.647 652.348C146.479 653.584 149.058 654.202 152.179 654.202C155.301 654.202 157.879 653.584 159.711 652.348C161.611 651.111 163.036 649.462 164.054 647.538C165.072 645.546 165.818 643.348 166.157 641.081C166.497 638.676 166.7 636.409 166.7 634.348V608.104H166.904Z" fill="#035C67"/>
<path d="M233.266 622.669C234.284 625.554 234.826 628.508 234.826 631.531V636.752H193.028C193.028 637.989 193.367 639.501 193.774 641.287C194.317 643.348 195.267 645.409 196.624 647.332C197.981 649.256 199.881 650.974 202.188 652.416C204.495 653.79 207.549 654.546 211.213 654.546C214.402 654.546 217.523 653.79 220.509 652.21C223.495 650.699 225.802 648.569 227.362 645.89L227.702 645.271L233.401 650.149L233.13 650.63C230.551 654.546 227.362 657.431 223.562 659.149C219.763 660.866 215.623 661.691 211.077 661.691C207.21 661.691 203.681 661.004 200.492 659.699C197.371 658.393 194.589 656.47 192.281 654.065C189.974 651.661 188.21 648.775 187.057 645.477C185.835 642.18 185.225 638.47 185.225 634.485C185.225 630.501 185.835 627.066 187.125 623.768C188.346 620.539 190.178 617.654 192.417 615.249C194.724 612.845 197.371 610.921 200.492 609.547C203.545 608.173 207.006 607.486 210.738 607.486C214.47 607.486 218.066 608.173 221.052 609.547C224.037 610.921 226.548 612.776 228.584 615.043C230.619 617.31 232.18 619.921 233.198 622.806L233.266 622.669ZM227.159 629.608C227.091 627.684 226.684 625.829 225.87 624.18C224.987 622.325 223.834 620.608 222.341 619.165C220.848 617.722 219.084 616.554 217.048 615.73C215.013 614.906 212.841 614.493 210.534 614.493C207.142 614.493 204.292 615.18 202.053 616.554C199.813 617.928 197.981 619.577 196.692 621.432C195.403 623.287 194.385 625.073 193.842 626.791C193.367 628.234 193.164 629.127 193.096 629.676H227.159V629.608Z" fill="#035C67"/>
<path d="M275.2 637.92C276.489 639.707 277.1 642.249 277.1 645.409C277.1 647.882 276.625 650.218 275.675 652.21C274.725 654.202 273.435 655.92 271.807 657.294C270.246 658.668 268.278 659.698 266.107 660.454C263.936 661.21 261.629 661.553 259.186 661.553C255.929 661.553 252.808 660.935 249.89 659.767C246.972 658.599 244.529 656.744 242.833 654.271L242.562 653.928L248.872 648.432L249.143 648.844C250.297 650.63 251.858 651.935 253.622 652.828C256.472 654.134 259.457 654.546 262.646 653.584C263.8 653.241 264.818 652.691 265.7 652.073C266.582 651.386 267.396 650.561 267.939 649.6C268.482 648.638 268.821 647.47 268.821 646.164C268.821 644.31 268.278 643.004 267.125 642.042C265.971 641.081 264.479 640.188 262.714 639.569C260.882 638.882 258.914 638.195 256.811 637.577C254.64 636.89 252.604 635.997 250.772 634.829C248.872 633.661 247.311 632.012 246.09 630.088C244.801 628.096 244.19 625.348 244.19 621.982C244.19 620.47 244.529 618.822 245.208 617.104C245.886 615.387 246.904 613.806 248.329 612.364C249.754 610.921 251.586 609.753 253.758 608.791C255.929 607.829 258.643 607.349 261.697 607.349C264.479 607.349 267.125 607.761 269.703 608.516C272.282 609.341 274.589 610.921 276.489 613.326L276.76 613.669L270.518 619.44L270.246 618.959C269.432 617.722 268.278 616.692 266.786 615.867C265.293 615.112 263.596 614.7 261.697 614.7C259.797 614.7 258.372 614.906 257.15 615.387C255.997 615.867 254.979 616.486 254.3 617.241C253.622 617.997 253.079 618.753 252.808 619.577C252.536 620.402 252.4 621.226 252.4 621.913C252.4 623.905 252.943 625.486 254.097 626.516C255.25 627.615 256.743 628.508 258.507 629.195C260.272 629.882 262.239 630.569 264.411 631.119C266.582 631.669 268.618 632.493 270.45 633.592C272.35 634.623 273.91 636.065 275.2 637.92Z" fill="#035C67"/>
<path d="M338.1 634.485C338.1 649.462 326.09 661.622 311.297 661.622C296.505 661.622 284.495 649.462 284.495 634.485C284.495 619.509 296.505 607.349 311.297 607.349C326.09 607.349 338.1 619.509 338.1 634.485ZM330.975 634.485C330.975 623.493 322.154 614.562 311.297 614.562C300.44 614.562 291.619 623.493 291.619 634.485C291.619 645.477 300.44 654.409 311.297 654.409C322.154 654.409 330.975 645.477 330.975 634.485Z" fill="#035C67"/>
<path d="M353.232 660.798H345.564V633.043C345.564 629.745 345.972 626.516 346.718 623.493C347.464 620.402 348.754 617.654 350.586 615.249C352.418 612.845 354.793 610.921 357.71 609.478C360.628 608.036 364.224 607.349 368.431 607.349C372.638 607.349 376.235 608.104 379.152 609.478C382.07 610.921 384.445 612.845 386.277 615.249C386.684 615.799 387.091 616.348 387.431 616.967C387.77 616.417 388.177 615.799 388.584 615.249C390.416 612.845 392.791 610.921 395.709 609.478C398.627 608.036 402.223 607.349 406.43 607.349C410.637 607.349 414.233 608.104 417.151 609.478C420.069 610.921 422.444 612.845 424.276 615.249C426.04 617.654 427.397 620.402 428.144 623.493C428.89 626.516 429.297 629.745 429.297 633.043V660.798H421.63V634.554C421.63 632.493 421.426 630.226 421.087 627.821C420.68 625.486 420.001 623.356 418.915 621.364C417.83 619.44 416.337 617.791 414.369 616.554C412.469 615.318 409.823 614.7 406.566 614.7C403.309 614.7 400.662 615.318 398.762 616.554C396.795 617.791 395.302 619.44 394.216 621.364C393.131 623.356 392.384 625.554 392.045 627.821C391.706 630.02 391.502 632.15 391.502 634.142V660.866H383.834V634.142C383.834 632.15 383.631 630.088 383.292 627.821C382.952 625.486 382.206 623.356 381.12 621.364C380.035 619.44 378.542 617.791 376.574 616.554C374.674 615.318 372.028 614.7 368.771 614.7C365.514 614.7 362.867 615.318 360.967 616.554C359 617.791 357.507 619.44 356.421 621.364C355.336 623.356 354.589 625.554 354.25 627.821C353.843 630.226 353.707 632.493 353.707 634.554V660.798H353.232Z" fill="#035C67"/>
<path d="M484.869 622.669C485.887 625.554 486.43 628.508 486.43 631.531V636.752H444.631C444.631 637.989 444.971 639.501 445.378 641.287C445.921 643.348 446.871 645.409 448.228 647.332C449.585 649.256 451.485 650.974 453.792 652.416C456.099 653.79 459.152 654.546 462.816 654.546C466.006 654.546 469.127 653.79 472.113 652.21C475.098 650.699 477.405 648.569 478.966 645.89L479.305 645.271L485.005 650.149L484.733 650.63C482.155 654.546 478.966 657.431 475.166 659.149C471.366 660.866 467.227 661.691 462.681 661.691C458.813 661.691 455.285 661.004 452.095 659.699C448.974 658.393 446.192 656.47 443.885 654.065C441.578 651.661 439.814 648.775 438.66 645.477C437.439 642.18 436.828 638.47 436.828 634.485C436.828 630.501 437.439 627.066 438.728 623.768C439.949 620.539 441.781 617.654 444.021 615.249C446.26 612.845 448.974 610.921 452.095 609.547C455.149 608.173 458.609 607.486 462.341 607.486C466.073 607.486 469.67 608.173 472.655 609.547C475.641 610.921 478.152 612.776 480.187 615.043C482.223 617.31 483.784 619.921 484.801 622.806L484.869 622.669ZM478.762 629.608C478.694 627.684 478.287 625.829 477.473 624.18C476.591 622.325 475.437 620.608 473.945 619.165C472.452 617.722 470.688 616.554 468.652 615.73C466.616 614.906 464.445 614.493 462.138 614.493C458.745 614.493 455.895 615.18 453.656 616.554C451.417 617.928 449.585 619.577 448.296 621.432C446.938 623.287 446.056 625.073 445.446 626.791C444.971 628.234 444.767 629.127 444.699 629.676H478.762V629.608Z" fill="#035C67"/>
<path d="M39.2687 646.233C38.2508 643.348 37.708 640.394 37.708 637.371V632.149H79.5065C79.5065 630.913 79.1672 629.401 78.7601 627.615C78.2172 625.554 77.2673 623.493 75.9102 621.57C74.5531 619.646 72.6532 617.928 70.3461 616.486C68.039 615.112 64.9856 614.356 61.3214 614.356C58.1323 614.356 55.0109 615.112 52.0253 616.692C49.0397 618.203 46.7327 620.333 45.172 623.012L44.8327 623.631L39.133 618.753L39.4044 618.272C41.9829 614.356 45.172 611.471 48.9719 609.753C52.7717 608.036 56.9109 607.211 61.4571 607.211C65.3248 607.211 68.8533 607.898 72.0425 609.203C75.1638 610.509 77.9458 612.432 80.2529 614.837C82.5599 617.241 84.3241 620.127 85.4777 623.424C86.6991 626.722 87.3098 630.432 87.3098 634.417C87.3098 638.401 86.6991 641.836 85.4098 645.134C84.1884 648.363 82.3564 651.248 80.1172 653.653C77.878 656.057 75.1638 657.981 72.0425 659.355C68.989 660.729 65.5284 661.416 61.7964 661.416C58.0644 661.416 54.4681 660.729 51.4825 659.355C48.4969 657.981 45.9863 656.126 43.9506 653.859C41.915 651.592 40.3543 648.981 39.3365 646.096L39.2687 646.233ZM45.3756 639.294C45.4434 641.218 45.8506 643.073 46.6648 644.722C47.5469 646.577 48.7005 648.294 50.1933 649.737C51.6861 651.18 53.4503 652.347 55.4859 653.172C57.5216 653.996 59.6929 654.408 62 654.408C65.3927 654.408 68.2426 653.722 70.4818 652.347C72.721 650.973 74.5531 649.325 75.8423 647.47C77.1994 645.615 78.0815 643.829 78.6922 642.111C79.1672 640.668 79.3708 639.775 79.4386 639.226H45.3756V639.294Z" fill="#035C67"/>
</svg>
