<?xml version="1.0" encoding="UTF-8"?>
<svg width="466px" height="496px" viewBox="0 0 466 496" version="1.1" xmlns="http://www.w3.org/2000/svg" xmlns:xlink="http://www.w3.org/1999/xlink">
    <!-- Generator: Sketch 52.2 (67145) - http://www.bohemiancoding.com/sketch -->
    <title>longhorn-php-logo-black</title>
    <desc>Created with Sketch.</desc>
    <g id="Page-1" stroke="none" stroke-width="1" fill="none" fill-rule="evenodd">
        <g id="longhorn-php-logo-black" fill="#4F5B93">
            <g id="Group" transform="translate(0.000000, 405.000000)">
                <polygon id="Path" points="3.6 1.5 10 1.5 10 40.2 30 40.2 30 46 3.6 46"></polygon>
                <path d="M70.4,0.9 C77.3,0.9 83,3.1 87.6,7.4 C92.2,11.7 94.5,17.2 94.5,23.8 C94.5,30.4 92.2,35.8 87.6,40.1 C83,44.4 77.2,46.5 70.2,46.5 C63.5,46.5 57.9,44.4 53.5,40.1 C49,35.8 46.8,30.4 46.8,24 C46.8,17.4 49,11.9 53.5,7.5 C57.9,3 63.5,0.9 70.4,0.9 Z M70.7,6.9 C65.6,6.9 61.4,8.5 58.2,11.7 C54.9,14.9 53.3,18.9 53.3,23.9 C53.3,28.7 54.9,32.7 58.2,35.9 C61.5,39.1 65.6,40.7 70.5,40.7 C75.5,40.7 79.6,39.1 82.9,35.8 C86.2,32.6 87.9,28.5 87.9,23.7 C87.9,19 86.2,15 82.9,11.8 C79.6,8.5 75.5,6.9 70.7,6.9 Z" id="Shape" fill-rule="nonzero"></path>
                <polygon id="Path" points="150.6 1.5 156.6 1.5 156.6 45.9 151.1 45.9 121.4 11.7 121.4 45.9 115.4 45.9 115.4 1.5 120.6 1.5 150.6 36"></polygon>
                <path d="M203.2,24 L218.1,24 L218.1,42.8 C212.6,45.2 207.2,46.4 201.8,46.4 C194.4,46.4 188.6,44.3 184.2,40 C179.8,35.7 177.6,30.4 177.6,24.1 C177.6,17.5 179.9,11.9 184.4,7.5 C189,3.1 194.7,0.9 201.6,0.9 C204.1,0.9 206.5,1.2 208.7,1.7 C210.9,2.2 213.8,3.2 217.2,4.7 L217.2,11.2 C211.9,8.1 206.6,6.6 201.4,6.6 C196.5,6.6 192.4,8.3 189.1,11.6 C185.8,14.9 184.1,19 184.1,23.8 C184.1,28.8 185.8,33 189.1,36.2 C192.4,39.4 196.7,41 202,41 C204.5,41 207.6,40.4 211.1,39.2 L211.7,39 L211.7,29.7 L203.1,29.7 L203.1,24 L203.2,24 Z" id="Path"></path>
                <polygon id="Path" points="271.8 1.5 278.2 1.5 278.2 45.9 271.8 45.9 271.8 26.6 246.8 26.6 246.8 45.9 240.4 45.9 240.4 1.5 246.8 1.5 246.8 20.7 271.8 20.7"></polygon>
                <path d="M322.8,0.9 C329.7,0.9 335.4,3.1 340,7.4 C344.6,11.7 346.9,17.2 346.9,23.8 C346.9,30.4 344.6,35.8 340,40.1 C335.4,44.4 329.6,46.5 322.6,46.5 C315.9,46.5 310.3,44.4 305.9,40.1 C301.4,35.8 299.2,30.4 299.2,24 C299.2,17.4 301.4,11.9 305.9,7.5 C310.3,3 315.9,0.9 322.8,0.9 Z M323.1,6.9 C318,6.9 313.8,8.5 310.6,11.7 C307.4,14.9 305.7,18.9 305.7,23.9 C305.7,28.7 307.3,32.7 310.6,35.9 C313.9,39.1 318,40.7 322.9,40.7 C327.9,40.7 332,39.1 335.3,35.8 C338.6,32.6 340.3,28.5 340.3,23.7 C340.3,19 338.6,15 335.3,11.8 C332,8.5 327.9,6.9 323.1,6.9 Z" id="Shape" fill-rule="nonzero"></path>
                <path d="M367.9,45.9 L367.9,1.5 L379,1.5 C383.5,1.5 387.1,2.6 389.7,4.8 C392.3,7 393.7,10 393.7,13.8 C393.7,16.4 393.1,18.6 391.8,20.5 C390.5,22.4 388.6,23.8 386.2,24.7 C387.6,25.6 389,26.9 390.4,28.5 C391.8,30.1 393.7,32.9 396.1,36.9 C397.6,39.4 398.9,41.3 399.8,42.6 L402.2,45.8 L394.6,45.8 L392.7,42.9 C392.6,42.8 392.5,42.6 392.3,42.4 L391.1,40.6 L389.1,37.4 L387,33.9 C385.7,32.1 384.5,30.6 383.4,29.5 C382.3,28.4 381.3,27.6 380.4,27.2 C379.5,26.7 378,26.5 376,26.5 L374.3,26.5 L374.3,45.8 L367.9,45.8 L367.9,45.9 Z M376.1,6.9 L374.2,6.9 L374.2,20.9 L376.6,20.9 C379.8,20.9 382,20.6 383.2,20.1 C384.4,19.5 385.3,18.7 386,17.6 C386.7,16.5 387,15.2 387,13.8 C387,12.4 386.6,11.1 385.9,10 C385.2,8.9 384.1,8.1 382.8,7.6 C381.5,7.1 379.3,6.9 376.1,6.9 Z" id="Shape" fill-rule="nonzero"></path>
                <polygon id="Path" points="455.4 1.5 461.4 1.5 461.4 45.9 456 45.9 426.3 11.7 426.3 45.9 420.3 45.9 420.3 1.5 425.5 1.5 455.5 36 455.5 1.5"></polygon>
                <path d="M22.4,73.4 C22.4,74.3 22.2,75.2 21.9,76.1 C21.6,77 21.1,77.8 20.3,78.6 C19.6,79.4 18.6,80 17.4,80.5 C16.2,81 14.7,81.2 13.1,81.2 L8.1,81.2 L8.1,90.7 L0.5,90.7 L0.5,65.5 L13.1,65.5 C14.7,65.5 16.2,65.7 17.4,66.2 C18.6,66.7 19.6,67.3 20.3,68.1 C21,68.9 21.5,69.7 21.9,70.6 C22.2,71.5 22.4,72.4 22.4,73.4 Z M14.6,73.4 C14.6,72.2 14.2,71.4 13.5,70.9 C12.8,70.5 11.5,70.2 9.7,70.2 L8.1,70.2 L8.1,76.3 L9.7,76.3 C11,76.3 11.9,76.2 12.6,76.1 C13.3,75.9 13.8,75.6 14.1,75.2 C14.5,74.8 14.6,74.2 14.6,73.4 Z" id="Shape" fill-rule="nonzero"></path>
                <polygon id="Path" points="60.7 90.7 53.1 90.7 53.1 80.9 41.7 80.9 41.7 90.7 34 90.7 34 65.5 41.6 65.5 41.6 74.8 53 74.8 53 65.5 60.6 65.5 60.6 90.7"></polygon>
                <path d="M96.3,73.4 C96.3,74.3 96.1,75.2 95.8,76.1 C95.5,77 95,77.8 94.2,78.6 C93.5,79.4 92.5,80 91.3,80.5 C90.1,81 88.6,81.2 87,81.2 L82,81.2 L82,90.7 L74.4,90.7 L74.4,65.5 L87,65.5 C88.6,65.5 90.1,65.7 91.3,66.2 C92.5,66.7 93.5,67.3 94.2,68.1 C94.9,68.9 95.4,69.7 95.8,70.6 C96.2,71.5 96.3,72.4 96.3,73.4 Z M88.6,73.4 C88.6,72.2 88.2,71.4 87.5,70.9 C86.8,70.5 85.5,70.2 83.7,70.2 L82.1,70.2 L82.1,76.3 L83.7,76.3 C85,76.3 85.9,76.2 86.6,76.1 C87.3,75.9 87.8,75.6 88.1,75.2 C88.4,74.8 88.6,74.2 88.6,73.4 Z" id="Shape" fill-rule="nonzero"></path>
                <path d="M149.1,88.8 C148.1,89.3 147,89.8 145.9,90.1 C144.8,90.4 143.7,90.7 142.6,90.8 C141.5,90.9 140.3,91 139.2,91 C137,91 135,90.7 133.3,90.1 C131.6,89.5 130,88.6 128.8,87.4 C127.5,86.2 126.6,84.8 125.9,83.2 C125.3,81.6 124.9,79.9 124.9,78 C124.9,75.8 125.3,73.9 126,72.3 C126.8,70.7 127.8,69.3 129.2,68.2 C130.6,67.1 132.1,66.3 133.8,65.8 C135.5,65.3 137.4,65 139.3,65 C142.2,65 145.4,65.6 149,66.9 L149,73.6 C147.7,72.8 146.5,72.2 145.3,71.7 C144.1,71.2 142.6,70.9 141,70.9 C139.5,70.9 138.2,71.2 136.9,71.8 C135.6,72.4 134.6,73.2 133.8,74.3 C133,75.4 132.6,76.6 132.6,78.1 C132.6,79.4 132.9,80.5 133.6,81.6 C134.3,82.7 135.2,83.5 136.4,84.1 C137.6,84.7 139,85 140.5,85 C141.7,85 142.9,84.9 144,84.6 C145.1,84.3 146,84 146.8,83.6 C147.5,83.2 148.3,82.8 149.1,82.3 L149.1,88.8 Z" id="Path"></path>
                <path d="M188.1,78 C188.1,80.4 187.6,82.5 186.5,84.5 C185.4,86.5 183.8,88.1 181.6,89.2 C179.5,90.4 176.8,90.9 173.8,90.9 C170.7,90.9 168,90.3 165.9,89.1 C163.7,87.9 162.1,86.3 161.1,84.3 C160.1,82.3 159.5,80.2 159.5,77.9 C159.5,75.6 160,73.5 161.1,71.5 C162.1,69.5 163.7,67.9 165.9,66.7 C168.1,65.5 170.7,64.9 173.8,64.9 C176.1,64.9 178.2,65.2 180,65.9 C181.8,66.6 183.3,67.5 184.5,68.7 C185.7,69.9 186.6,71.3 187.2,72.8 C187.8,74.3 188.1,76.3 188.1,78 Z M180.4,78 C180.4,77.1 180.3,76.2 180,75.4 C179.7,74.6 179.3,73.9 178.7,73.4 C178.1,72.8 177.4,72.4 176.6,72.1 C175.8,71.8 174.8,71.6 173.8,71.6 C171.8,71.6 170.2,72.2 169,73.4 C167.8,74.6 167.3,76.1 167.3,78.1 C167.3,80.1 167.9,81.6 169.1,82.8 C170.3,84 171.9,84.6 173.9,84.6 C175.3,84.6 176.5,84.3 177.5,83.8 C178.5,83.2 179.2,82.5 179.7,81.5 C180.1,80.4 180.4,79.3 180.4,78 Z" id="Shape" fill-rule="nonzero"></path>
                <polygon id="Path" points="227.2 90.7 220.4 90.7 207.3 76.6 207.3 90.7 199.8 90.7 199.8 65.5 206.6 65.5 219.6 79.5 219.6 65.5 227.2 65.5"></polygon>
                <polygon id="Path" points="259.1 80.5 248.6 80.5 248.6 90.7 241 90.7 241 65.5 259.1 65.5 259.1 70.6 248.6 70.6 248.6 75.5 259.1 75.5"></polygon>
                <polygon id="Path" points="290.7 90.7 271.7 90.7 271.7 65.5 290.4 65.5 290.4 70.6 279.3 70.6 279.3 75.2 289.9 75.2 289.9 80.3 279.3 80.3 279.3 85.7 290.7 85.7 290.7 90.7"></polygon>
                <path d="M327.6,90.7 L319.4,90.7 L317.4,86.2 C316.7,84.6 316,83.4 315.4,82.6 C314.8,81.8 314.2,81.4 313.7,81.1 C313.1,80.9 312.4,80.8 311.6,80.8 L310.7,80.8 L310.7,90.6 L303.1,90.6 L303.1,65.4 L316,65.4 C318.1,65.4 319.8,65.8 321.1,66.7 C322.4,67.5 323.4,68.6 324,69.8 C324.6,71 324.9,72.2 324.9,73.3 C324.9,74.6 324.7,75.7 324.2,76.5 C323.7,77.4 323.2,78 322.6,78.4 C322.1,78.8 321.4,79.2 320.8,79.5 C321.6,80 322.3,80.5 322.8,81.2 C323.3,81.8 324,83.2 325,85.1 L327.6,90.7 Z M317.3,73.4 C317.3,72.2 316.9,71.4 316.2,71 C315.4,70.5 314.2,70.3 312.5,70.3 L310.9,70.3 L310.9,76.4 L312.5,76.4 C314.4,76.4 315.6,76.2 316.3,75.8 C317,75.3 317.3,74.6 317.3,73.4 Z" id="Shape" fill-rule="nonzero"></path>
                <polygon id="Path" points="357.6 90.7 338.6 90.7 338.6 65.5 357.3 65.5 357.3 70.6 346.2 70.6 346.2 75.2 356.8 75.2 356.8 80.3 346.2 80.3 346.2 85.7 357.6 85.7 357.6 90.7"></polygon>
                <polygon id="Path" points="397.5 90.7 390.7 90.7 377.6 76.6 377.6 90.7 370.1 90.7 370.1 65.5 376.9 65.5 389.9 79.5 389.9 65.5 397.5 65.5"></polygon>
                <path d="M433.9,88.8 C432.9,89.3 431.8,89.8 430.7,90.1 C429.6,90.4 428.5,90.7 427.4,90.8 C426.3,90.9 425.1,91 424,91 C421.8,91 419.8,90.7 418.1,90.1 C416.4,89.5 414.8,88.6 413.6,87.4 C412.3,86.2 411.4,84.8 410.7,83.2 C410.1,81.6 409.7,79.9 409.7,78 C409.7,75.8 410.1,73.9 410.8,72.3 C411.6,70.7 412.6,69.3 414,68.2 C415.4,67.1 416.9,66.3 418.6,65.8 C420.3,65.3 422.2,65 424.1,65 C427,65 430.2,65.6 433.8,66.9 L433.8,73.6 C432.5,72.8 431.3,72.2 430.1,71.7 C428.9,71.2 427.4,70.9 425.8,70.9 C424.3,70.9 423,71.2 421.7,71.8 C420.4,72.4 419.4,73.2 418.6,74.3 C417.8,75.4 417.4,76.6 417.4,78.1 C417.4,79.4 417.7,80.5 418.4,81.6 C419.1,82.7 420,83.5 421.2,84.1 C422.4,84.7 423.8,85 425.3,85 C426.5,85 427.7,84.9 428.8,84.6 C429.9,84.3 430.8,84 431.6,83.6 C432.3,83.2 433.1,82.8 433.9,82.3 L433.9,88.8 Z" id="Path"></path>
                <polygon id="Path" points="465.5 90.7 446.5 90.7 446.5 65.5 465.2 65.5 465.2 70.6 454.1 70.6 454.1 75.2 464.7 75.2 464.7 80.3 454.1 80.3 454.1 85.7 465.5 85.7"></polygon>
            </g>
            <path d="M307.9,67.3 C311.1,78.5 312.8,90.3 312.8,102.5 C312.8,173.7 255.1,231.3 184,231.3 C180.4,231.3 176.8,231.1 173.3,230.8 L173.3,320.1 L226.9,320.1 C226.9,319.5 226.8,319 226.8,318.4 C226.8,299.5 242.1,284.2 261,284.2 C279.9,284.2 295.2,299.5 295.2,318.4 C295.2,319 295.1,319.6 295.1,320.1 L348.7,320.1 L348.7,67.3 L307.9,67.3 Z" id="Path"></path>
            <path d="M424.6,145.8 C424.6,181.8 401,212.2 368.5,222.6 L368.5,190.9 C384.4,182.2 395.3,165.3 395.3,145.9 C395.3,126.5 384.5,109.6 368.5,100.9 L368.5,69.2 C401,79.4 424.6,109.8 424.6,145.8 Z" id="Path"></path>
            <polyline id="Path" points="42.1 6.8 41.8 3.1 39 1.7 37.6 3.3 37.4 6.5"></polyline>
            <path d="M317.4,2.7 C316.2,2.6 315.3,2.9 314.9,3.1 L314.7,3.2 C314.3,3.4 314,3.6 313.6,3.8 C313.1,4.1 312.6,4.4 312.1,4.8 C311.2,5.4 310.5,6.1 309.8,6.8 C308.3,8.1 307,9.5 305.8,10.8 C303.3,13.5 300.9,16.4 298.8,19.2 C294.6,24.7 290.6,30.8 286.9,37.4 C285,40.7 283.4,44.1 281.8,47.2 C281.1,48.8 280.3,50.5 279.5,52.3 L278.5,54.7 C278.5,54.7 278.5,54.7 278.4,54.8 C277.8,55.4 276.9,55.9 275.6,56.6 C258.7,23.1 224,0 183.9,0 C143.3,0 108.3,23.6 91.7,57.7 C89.9,57.4 88.2,57.2 86.7,56.8 C84.9,56.4 82.2,55.7 80.5,54.9 C79.2,54.3 78.3,53.7 77.7,53.2 C77.7,53.2 77.7,53.2 77.7,53.2 L76.7,50.8 C76,49 75.1,47.2 74.4,45.6 C72.9,42.4 71.2,39 69.4,35.8 C65.7,29.2 61.7,23.1 57.5,17.6 C55.3,14.7 53,11.9 50.4,9.1 C49.2,7.8 47.8,6.4 46.4,5.1 C45.7,4.5 44.9,3.8 44,3.1 C43.5,2.8 43,2.4 42.5,2.1 C42.2,1.9 41.8,1.7 41.4,1.5 L41.2,1.4 C40.8,1.2 39.9,0.9 38.7,1 C37.5,1.1 36.4,1.6 35.6,2.5 C34.8,3.4 34.4,4.5 34.5,5.7 C34.6,7.4 35.4,8.5 36.4,9.1 C36.5,9.3 36.6,9.4 36.7,9.6 C37.1,10.2 37.4,10.9 37.7,11.5 C38.5,13.2 39.1,14.6 39.6,16 C40.9,19.1 42,22.3 43.1,25.3 C45.4,32 47.3,38.2 48.9,44.2 L49.3,45.8 C50,48.5 50.6,51 51.2,53.6 L52.6,60.7 L53.1,62.7 C53.3,63.3 53.5,64 53.7,64.6 L53.9,65.2 C55,68.1 56.6,70.9 58.6,73.4 C60.3,75.5 62.3,77.4 64.7,79.3 C68.4,82.1 72.3,84.4 77.1,86.4 C79,87.2 80.8,87.8 82.6,88.4 C82,93 81.6,97.8 81.6,102.6 L81.6,318.3 L130.5,318.3 L130.5,224.2 C132,223.5 133.5,222.8 135.1,222 C138.5,220.3 141.4,218.8 144.6,216.7 L145.7,216 C148.9,214 151.3,210.9 152.6,207.4 C153.4,205.1 153.7,202.7 153.4,200.4 C163.1,203.4 173.4,205.1 184.1,205.1 C240.7,205.1 286.6,159.2 286.6,102.6 C286.6,96.5 286,90.6 285,84.8 C287.3,83.5 289.4,82.2 291.4,80.6 C293.7,78.8 295.7,76.9 297.4,74.7 C299.4,72.2 301,69.4 302.1,66.5 L302.3,66 C302.5,65.4 302.7,64.8 302.9,64.2 L304.8,55.1 C305.3,52.5 306,50 306.7,47.3 L307.1,45.7 C308.7,39.7 310.6,33.5 312.9,26.8 C314,23.8 315.1,20.6 316.4,17.4 C316.9,16.1 317.5,14.7 318.3,13 C318.6,12.3 319,11.7 319.3,11 C319.4,10.8 319.5,10.6 319.6,10.4 C320.7,9.8 321.4,8.6 321.5,7.1 C321.4,4.8 319.6,2.8 317.4,2.7 Z M39.6,4.7 L38.5,6 L38.7,4.6 L39,2.4 C39.6,2.5 40.3,2.8 40.8,3.3 L39.6,4.7 Z M83.7,81.1 C82.4,80.6 81,80.1 79.6,79.6 C75.4,77.9 72,75.9 68.9,73.5 C67,72 65.4,70.5 64,68.8 C62.5,66.9 61.3,64.7 60.5,62.7 L60.3,62.1 C60.2,61.7 60,61.4 59.9,60.9 L58.1,52.1 C57.5,49.4 56.8,46.6 56.2,44 L55.8,42.4 C54.2,36.2 52.2,29.9 49.8,23 C49.1,21.1 48.4,19.1 47.7,17.2 C49.1,18.8 50.4,20.4 51.6,22 C55.6,27.3 59.5,33.1 63,39.4 C64.8,42.5 66.3,45.7 67.8,48.7 C68.5,50.3 69.3,51.9 69.9,53.5 L70.9,56 L71.3,56.9 L71.6,57.4 C71.8,57.7 72,57.9 72.1,58 L72.3,58.2 C73.5,59.4 75.1,60.5 77.2,61.5 C79,62.4 81.4,63.1 84.8,63.9 C85.9,64.2 87.2,64.4 88.4,64.6 C86.6,69.9 84.9,75.4 83.7,81.1 Z M146.6,205.3 C145.8,207.6 144.3,209.5 142.3,210.8 L141.2,211.5 C138.2,213.4 135.5,214.8 132.2,216.5 C129.1,218.1 126,219.5 123,220.8 C119.5,222.2 116.4,223.3 113.6,224.1 C113.4,224.2 113.1,224.2 112.8,224.3 C113,224.1 113.2,223.8 113.4,223.6 C115.2,221.3 116.8,218.7 118.6,215.6 C120.1,212.9 121.6,210.1 122.9,207.2 C124.2,204.5 125.6,201.4 126.6,198.6 C127.5,195.9 129.4,193.8 132,192.6 C133.5,191.9 135,191.5 136.6,191.5 C137.8,191.5 138.9,191.7 140.1,192.1 C145.6,193.7 148.5,199.8 146.6,205.3 Z M141.7,118.7 L143.4,128.5 L134.6,123.9 L125.8,128.5 L127.5,118.7 L120.4,111.8 L130.2,110.4 L134.6,101.5 L139,110.4 L148.8,111.8 L141.7,118.7 Z M306.2,24.5 C303.8,31.4 301.9,37.7 300.3,43.9 L299.9,45.5 C299.2,48.1 298.5,50.9 298,53.6 L296.6,60.8 L296.2,62.4 C296.1,62.8 296,63.2 295.8,63.5 L295.6,64 C294.8,66.2 293.5,68.4 292,70.3 C290.6,72 289,73.6 287.1,75.1 C283.9,77.5 280.5,79.5 276.3,81.2 C268.5,84.4 261,86 254.6,87 C247.1,88.3 239.7,88.8 233.5,89.3 C225.3,89.7 218.7,89.9 212.8,89.9 C211.5,89.9 210.2,89.9 208.9,90 C206.8,90 204.8,90 203,90.1 C202.7,90.1 202.3,90.1 202,90.1 C201.9,90.1 201.7,90.1 201.6,90.1 C196.3,81.9 202.2,67 202.2,67 C206,66.9 209.5,66.9 212.7,67 C215.8,67 218.9,67.1 221.9,67.2 C225.5,67.3 229.2,67.4 232.8,67.4 C239.4,67.5 246,67.4 252.3,67.2 C255.8,67 258.9,66.8 261.7,66.5 C265.1,66.2 268,65.7 270.6,65.1 C274,64.3 276.3,63.5 278.2,62.7 C280.3,61.7 281.9,60.7 283.1,59.5 L283.3,59.3 C283.4,59.2 283.6,59 283.8,58.7 L284.2,58.2 L285.5,54.9 C286.2,53.2 287,51.6 287.6,50.1 C289.1,47.1 290.6,43.8 292.4,40.7 C296,34.4 299.8,28.5 303.8,23.2 C305.3,21.2 307,19.1 308.7,17.2 C308,19.7 307.1,22.1 306.2,24.5 Z" id="Shape" fill-rule="nonzero"></path>
        </g>
    </g>
</svg>